# xmcd
#
# Track frame offsets: 
#        150
#        38094
#        70922
#        123421
#        165056
#        203589
#        240643
#        271189
#        301111
#        336477
#
# Disc length: 4743 seconds
#
# Revision: 0
# Processed by: cddbd v1.5.2PL0 Copyright (c) Steve Scherf et al.
# Submitted via: ExactAudioCopy v1.0b3
#
DISCID=7d12850a
DTITLE=Various Artist - 50 Eye-Trance Tracks - CD 3
DYEAR=1900
DGENRE=
TTITLE0=Ex-Driver - Heathrow (Original Mix)
TTITLE1=DJ Tatana Feat. Sarah Vieth - Silence 2007 (Extended Mix)
TTITLE2=Rank 1 - Opus 17
TTITLE3=Oen Bearen - Unadulterared (Original Mix)
TTITLE4=Gouryella - Tenshi (Original Mix)
TTITLE5=Above and Beyond - Anjunabeach
TTITLE6=Carlo Resoort - Journey To Freedom (Original Mix)
TTITLE7=Re-Ward Vs. Dr. Willis - Maaybe (Original Mix)
TTITLE8=Ciaran McAuley and Oonagh Pres. Oriana - Bright Lights (Rene Abl
TTITLE8=aze Remix)
TTITLE9=Chris Turner Feat. Claire Willis - Captured Fall (Original Mix
TTITLE9=Edit)
EXTD=
EXTT0=
EXTT1=
EXTT2=
EXTT3=
EXTT4=
EXTT5=
EXTT6=
EXTT7=
EXTT8=
EXTT9=
PLAYORDER=
